<?xml version="1.0" encoding="UTF-8" standalone="no"?>
<!DOCTYPE svg PUBLIC "-//W3C//DTD SVG 1.1//EN"
 "http://www.w3.org/Graphics/SVG/1.1/DTD/svg11.dtd">
<!-- Generated by graphviz version 5.0.0 (20220707.1540)
 -->
<!-- Title: UmlClassDiagram Pages: 1 -->
<svg width="826pt" height="1303pt"
 viewBox="0.00 0.00 825.54 1303.40" xmlns="http://www.w3.org/2000/svg" xmlns:xlink="http://www.w3.org/1999/xlink">
<g id="graph0" class="graph" transform="scale(1 1) rotate(0) translate(4 1299.4)">
<title>UmlClassDiagram</title>
<polygon fill="white" stroke="transparent" points="-4,4 -4,-1299.4 821.54,-1299.4 821.54,4 -4,4"/>
<!-- 1 -->
<g id="node1" class="node">
<title>1</title>
<polygon fill="#f2f2f2" stroke="black" points="319.06,-0.5 319.06,-134.1 407.76,-134.1 407.76,-0.5 319.06,-0.5"/>
<text text-anchor="middle" x="363.41" y="-117.5" font-family="Times,serif" font-size="14.00">&lt;&lt;Enum&gt;&gt;</text>
<text text-anchor="middle" x="363.41" y="-100.7" font-family="Times,serif" font-size="14.00">status</text>
<text text-anchor="middle" x="363.41" y="-83.9" font-family="Times,serif" font-size="14.00">Raffle.sol</text>
<polyline fill="none" stroke="black" points="319.06,-75.7 407.76,-75.7 "/>
<text text-anchor="start" x="327.06" y="-59.1" font-family="Times,serif" font-size="14.00">ready: 0</text>
<text text-anchor="start" x="327.06" y="-42.3" font-family="Times,serif" font-size="14.00">ongoing: 1</text>
<text text-anchor="start" x="327.06" y="-25.5" font-family="Times,serif" font-size="14.00">completed: 2</text>
<text text-anchor="start" x="327.06" y="-8.7" font-family="Times,serif" font-size="14.00">canceled: 3</text>
</g>
<!-- 0 -->
<g id="node5" class="node">
<title>0</title>
<polygon fill="#f2f2f2" stroke="black" points="0,-171.1 0,-699.1 726.83,-699.1 726.83,-171.1 0,-171.1"/>
<text text-anchor="middle" x="363.41" y="-682.5" font-family="Times,serif" font-size="14.00">Raffle</text>
<text text-anchor="middle" x="363.41" y="-665.7" font-family="Times,serif" font-size="14.00">Raffle.sol</text>
<polyline fill="none" stroke="black" points="0,-657.5 726.83,-657.5 "/>
<text text-anchor="start" x="8" y="-640.9" font-family="Times,serif" font-size="14.00">Public:</text>
<text text-anchor="start" x="8" y="-624.1" font-family="Times,serif" font-size="14.00"> &#160;&#160;Pool: mapping(address=&gt;RafflePool)</text>
<polyline fill="none" stroke="black" points="0,-615.9 726.83,-615.9 "/>
<text text-anchor="start" x="8" y="-599.3" font-family="Times,serif" font-size="14.00">Public:</text>
<text text-anchor="start" x="8" y="-582.5" font-family="Times,serif" font-size="14.00"> &#160;&#160;&#160;&lt;&lt;event&gt;&gt; settedAdmin(_FT: address, _admin: address, _status: bool)</text>
<text text-anchor="start" x="8" y="-565.7" font-family="Times,serif" font-size="14.00"> &#160;&#160;&#160;&lt;&lt;event&gt;&gt; raffleCreated(_FT: address, _NFT: address, round: uint, stratTime: uint, endTime: uint)</text>
<text text-anchor="start" x="8" y="-548.9" font-family="Times,serif" font-size="14.00"> &#160;&#160;&#160;&lt;&lt;event&gt;&gt; addedAvailableNFT(_FT: address, _NFT: address, round: uint)</text>
<text text-anchor="start" x="8" y="-532.1" font-family="Times,serif" font-size="14.00"> &#160;&#160;&#160;&lt;&lt;event&gt;&gt; addedItem(_FT: address, _NFT: address, round: uint, _NFTId: uint, _price: uint)</text>
<text text-anchor="start" x="8" y="-515.3" font-family="Times,serif" font-size="14.00"> &#160;&#160;&#160;&lt;&lt;event&gt;&gt; removedItem(_FT: address, _NFT: address, round: uint, _NFTId: uint)</text>
<text text-anchor="start" x="8" y="-498.5" font-family="Times,serif" font-size="14.00"> &#160;&#160;&#160;&lt;&lt;event&gt;&gt; joinedRaffle(joiner: address, _FT: address, round: uint, selectedItem: uint, NFTAddress: address, userNFT: uint)</text>
<text text-anchor="start" x="8" y="-481.7" font-family="Times,serif" font-size="14.00"> &#160;&#160;&#160;&lt;&lt;event&gt;&gt; completedRaffle(_FT: address, round: uint)</text>
<text text-anchor="start" x="8" y="-464.9" font-family="Times,serif" font-size="14.00"> &#160;&#160;&#160;&lt;&lt;event&gt;&gt; canceledRaffle(_FT: address, round: uint)</text>
<text text-anchor="start" x="8" y="-448.1" font-family="Times,serif" font-size="14.00"> &#160;&#160;&#160;&lt;&lt;event&gt;&gt; StartedRaffle(_FT: address, round: uint)</text>
<text text-anchor="start" x="8" y="-431.3" font-family="Times,serif" font-size="14.00"> &#160;&#160;&#160;&lt;&lt;event&gt;&gt; luckyDrawed(_FT: address, round: uint, itemNumber: uint, winner: address)</text>
<text text-anchor="start" x="8" y="-414.5" font-family="Times,serif" font-size="14.00"> &#160;&#160;&#160;&lt;&lt;modifier&gt;&gt; onlyAdmin(_FT: address)</text>
<text text-anchor="start" x="8" y="-397.7" font-family="Times,serif" font-size="14.00"> &#160;&#160;&#160;createPool(_FT: address, raffleNFT: address) &lt;&lt;onlyOwner&gt;&gt;</text>
<text text-anchor="start" x="8" y="-380.9" font-family="Times,serif" font-size="14.00"> &#160;&#160;&#160;getPool(_FT: address): (bool, address, uint, uint)</text>
<text text-anchor="start" x="8" y="-364.1" font-family="Times,serif" font-size="14.00"> &#160;&#160;&#160;destroyPool(_FT: address) &lt;&lt;onlyOwner&gt;&gt;</text>
<text text-anchor="start" x="8" y="-347.3" font-family="Times,serif" font-size="14.00"> &#160;&#160;&#160;setAdmin(_FT: address, _admin: address, _status: bool) &lt;&lt;onlyAdmin&gt;&gt;</text>
<text text-anchor="start" x="8" y="-330.5" font-family="Times,serif" font-size="14.00"> &#160;&#160;&#160;createRaffle(_FT: address, _NFT: address, stratTime: uint, endTime: uint) &lt;&lt;onlyAdmin&gt;&gt;</text>
<text text-anchor="start" x="8" y="-313.7" font-family="Times,serif" font-size="14.00"> &#160;&#160;&#160;addAvailableNFT(_FT: address, _NFT: address, round: uint) &lt;&lt;onlyAdmin&gt;&gt;</text>
<text text-anchor="start" x="8" y="-296.9" font-family="Times,serif" font-size="14.00"> &#160;&#160;&#160;addItem(_FT: address, round: uint, _price: uint, tokenURI: string) &lt;&lt;onlyAdmin&gt;&gt;</text>
<text text-anchor="start" x="8" y="-280.1" font-family="Times,serif" font-size="14.00"> &#160;&#160;&#160;removeItem(_FT: address, _NFT: address, round: uint, _NFTId: uint): bool &lt;&lt;onlyAdmin&gt;&gt;</text>
<text text-anchor="start" x="8" y="-263.3" font-family="Times,serif" font-size="14.00"> &#160;&#160;&#160;joinRaffle(_FT: address, round: uint, selectedItem: uint, NFTAddress: address, userNFT: uint)</text>
<text text-anchor="start" x="8" y="-246.5" font-family="Times,serif" font-size="14.00"> &#160;&#160;&#160;endRaffle(_FT: address, round: uint) &lt;&lt;onlyAdmin&gt;&gt;</text>
<text text-anchor="start" x="8" y="-229.7" font-family="Times,serif" font-size="14.00"> &#160;&#160;&#160;cancelRaffle(_FT: address, round: uint) &lt;&lt;onlyAdmin&gt;&gt;</text>
<text text-anchor="start" x="8" y="-212.9" font-family="Times,serif" font-size="14.00"> &#160;&#160;&#160;startRaffle(_FT: address, round: uint) &lt;&lt;onlyAdmin&gt;&gt;</text>
<text text-anchor="start" x="8" y="-196.1" font-family="Times,serif" font-size="14.00"> &#160;&#160;&#160;luckyDraw(_FT: address, round: uint, itemNumber: uint): uint</text>
<text text-anchor="start" x="8" y="-179.3" font-family="Times,serif" font-size="14.00"> &#160;&#160;&#160;draw(_FT: address, round: uint, itemNumber: uint): (_luckyDraw: uint256, _winner: address) &lt;&lt;onlyAdmin&gt;&gt;</text>
</g>
<!-- 1&#45;&gt;0 -->
<g id="edge4" class="edge">
<title>1&#45;&gt;0</title>
<path fill="none" stroke="black" d="M358.09,-134.12C357.86,-141.9 357.67,-150.16 357.5,-158.8"/>
<polygon fill="black" stroke="black" points="357.5,-158.8 361.39,-164.87 357.28,-170.8 353.39,-164.73 357.5,-158.8"/>
</g>
<!-- 2 -->
<g id="node2" class="node">
<title>2</title>
<polygon fill="#f2f2f2" stroke="black" points="400.73,-736.1 400.73,-886.5 600.1,-886.5 600.1,-736.1 400.73,-736.1"/>
<text text-anchor="middle" x="500.41" y="-869.9" font-family="Times,serif" font-size="14.00">&lt;&lt;Struct&gt;&gt;</text>
<text text-anchor="middle" x="500.41" y="-853.1" font-family="Times,serif" font-size="14.00">RafflePool</text>
<text text-anchor="middle" x="500.41" y="-836.3" font-family="Times,serif" font-size="14.00">Raffle.sol</text>
<polyline fill="none" stroke="black" points="400.73,-828.1 600.1,-828.1 "/>
<text text-anchor="start" x="408.73" y="-811.5" font-family="Times,serif" font-size="14.00">round: Raffle[]</text>
<text text-anchor="start" x="408.73" y="-794.7" font-family="Times,serif" font-size="14.00">admin: mapping(address=&gt;bool)</text>
<text text-anchor="start" x="408.73" y="-777.9" font-family="Times,serif" font-size="14.00">currentRound: uint</text>
<text text-anchor="start" x="408.73" y="-761.1" font-family="Times,serif" font-size="14.00">nftCount: uint</text>
<text text-anchor="start" x="408.73" y="-744.3" font-family="Times,serif" font-size="14.00">nftAddress: address</text>
</g>
<!-- 3 -->
<g id="node3" class="node">
<title>3</title>
<polygon fill="#f2f2f2" stroke="black" points="344.23,-923.5 344.23,-1090.7 536.59,-1090.7 536.59,-923.5 344.23,-923.5"/>
<text text-anchor="middle" x="440.41" y="-1074.1" font-family="Times,serif" font-size="14.00">&lt;&lt;Struct&gt;&gt;</text>
<text text-anchor="middle" x="440.41" y="-1057.3" font-family="Times,serif" font-size="14.00">Raffle</text>
<text text-anchor="middle" x="440.41" y="-1040.5" font-family="Times,serif" font-size="14.00">Raffle.sol</text>
<polyline fill="none" stroke="black" points="344.23,-1032.3 536.59,-1032.3 "/>
<text text-anchor="start" x="352.23" y="-1015.7" font-family="Times,serif" font-size="14.00">startTime: uint</text>
<text text-anchor="start" x="352.23" y="-998.9" font-family="Times,serif" font-size="14.00">deadline: uint</text>
<text text-anchor="start" x="352.23" y="-982.1" font-family="Times,serif" font-size="14.00">_status: status</text>
<text text-anchor="start" x="352.23" y="-965.3" font-family="Times,serif" font-size="14.00">items: item[]</text>
<text text-anchor="start" x="352.23" y="-948.5" font-family="Times,serif" font-size="14.00">availableNFTs: address[]</text>
<text text-anchor="start" x="352.23" y="-931.7" font-family="Times,serif" font-size="14.00">ticket: mapping(address=&gt;uint)</text>
</g>
<!-- 2&#45;&gt;3 -->
<g id="edge1" class="edge">
<title>2&#45;&gt;3</title>
<path fill="none" stroke="black" stroke-dasharray="5,2" d="M477.39,-886.67C474.67,-895.45 471.87,-904.49 469.09,-913.49"/>
<polygon fill="black" stroke="black" points="465.69,-912.62 466.08,-923.21 472.38,-914.69 465.69,-912.62"/>
</g>
<!-- 2&#45;&gt;0 -->
<g id="edge5" class="edge">
<title>2&#45;&gt;0</title>
<path fill="none" stroke="black" d="M478.7,-735.92C475.99,-727.98 473.1,-719.61 470.07,-710.91"/>
<polygon fill="black" stroke="black" points="469.97,-710.62 464.21,-706.28 466,-699.29 471.76,-703.63 469.97,-710.62"/>
</g>
<!-- 3&#45;&gt;1 -->
<g id="edge2" class="edge">
<title>3&#45;&gt;1</title>
<path fill="none" stroke="black" stroke-dasharray="5,2" d="M536.89,-947.17C561.98,-929.51 587.95,-908.94 609.41,-887 679.6,-815.26 706.14,-795.6 735.41,-699.6 803.99,-474.71 877.93,-357.6 735.41,-170.6 696.97,-120.15 511.79,-88.35 418.04,-75.23"/>
<polygon fill="black" stroke="black" points="418.28,-71.73 407.89,-73.83 417.32,-78.66 418.28,-71.73"/>
</g>
<!-- 4 -->
<g id="node4" class="node">
<title>4</title>
<polygon fill="#f2f2f2" stroke="black" points="155.57,-1127.7 155.57,-1294.9 477.26,-1294.9 477.26,-1127.7 155.57,-1127.7"/>
<text text-anchor="middle" x="316.41" y="-1278.3" font-family="Times,serif" font-size="14.00">&lt;&lt;Struct&gt;&gt;</text>
<text text-anchor="middle" x="316.41" y="-1261.5" font-family="Times,serif" font-size="14.00">item</text>
<text text-anchor="middle" x="316.41" y="-1244.7" font-family="Times,serif" font-size="14.00">Raffle.sol</text>
<polyline fill="none" stroke="black" points="155.57,-1236.5 477.26,-1236.5 "/>
<text text-anchor="start" x="163.57" y="-1219.9" font-family="Times,serif" font-size="14.00">id: uint</text>
<text text-anchor="start" x="163.57" y="-1203.1" font-family="Times,serif" font-size="14.00">price: uint</text>
<text text-anchor="start" x="163.57" y="-1186.3" font-family="Times,serif" font-size="14.00">entries: address[]</text>
<text text-anchor="start" x="163.57" y="-1169.5" font-family="Times,serif" font-size="14.00">usedToken: mapping(address=&gt;mapping(uint=&gt;bool))</text>
<text text-anchor="start" x="163.57" y="-1152.7" font-family="Times,serif" font-size="14.00">count: mapping(address=&gt;uint256)</text>
<text text-anchor="start" x="163.57" y="-1135.9" font-family="Times,serif" font-size="14.00">winner: address</text>
</g>
<!-- 3&#45;&gt;4 -->
<g id="edge3" class="edge">
<title>3&#45;&gt;4</title>
<path fill="none" stroke="black" stroke-dasharray="5,2" d="M389.62,-1090.93C383.94,-1100.19 378.12,-1109.68 372.38,-1119.04"/>
<polygon fill="black" stroke="black" points="369.37,-1117.25 367.13,-1127.6 375.34,-1120.91 369.37,-1117.25"/>
</g>
<!-- 3&#45;&gt;0 -->
<g id="edge6" class="edge">
<title>3&#45;&gt;0</title>
<path fill="none" stroke="black" d="M411.24,-923.29C407.01,-911.32 403.17,-898.98 400.41,-887 387.5,-830.87 379.69,-769.83 374.9,-711.33"/>
<polygon fill="black" stroke="black" points="374.9,-711.24 370.44,-705.57 373.96,-699.27 378.42,-704.94 374.9,-711.24"/>
</g>
<!-- 4&#45;&gt;0 -->
<g id="edge7" class="edge">
<title>4&#45;&gt;0</title>
<path fill="none" stroke="black" d="M321.45,-1127.39C327.45,-1028.59 337.78,-858.4 346.69,-711.61"/>
<polygon fill="black" stroke="black" points="346.71,-711.27 343.08,-705.04 347.44,-699.29 351.07,-705.52 346.71,-711.27"/>
</g>
<!-- 0&#45;&gt;1 -->
<g id="edge10" class="edge">
<title>0&#45;&gt;1</title>
<path fill="none" stroke="black" stroke-dasharray="5,2" d="M369.55,-170.8C369.4,-161.54 369.22,-152.63 369.01,-144.18"/>
<polygon fill="black" stroke="black" points="372.51,-144.02 368.74,-134.12 365.51,-144.21 372.51,-144.02"/>
</g>
<!-- 0&#45;&gt;2 -->
<g id="edge8" class="edge">
<title>0&#45;&gt;2</title>
<path fill="none" stroke="black" d="M453.55,-699.29C457.11,-708.66 460.59,-717.72 463.94,-726.36"/>
<polygon fill="black" stroke="black" points="460.78,-727.87 467.67,-735.92 467.3,-725.33 460.78,-727.87"/>
</g>
<!-- 0&#45;&gt;3 -->
<g id="edge9" class="edge">
<title>0&#45;&gt;3</title>
<path fill="none" stroke="black" stroke-dasharray="5,2" d="M356.48,-699.27C360.64,-761.4 368.61,-827 382.41,-887 384.44,-895.8 387.04,-904.79 390.03,-913.69"/>
<polygon fill="black" stroke="black" points="386.79,-915.02 393.42,-923.29 393.4,-912.7 386.79,-915.02"/>
</g>
</g>
</svg>
